<svg xmlns="http://www.w3.org/2000/svg" xml:space="preserve" width="2000" height="227" data-id="lg_1zdY2ObBYNKvlQKNg1" data-version="1" viewBox="0 0 2000 227"><g data-padding="20"><g transform="translate(10 6.776)scale(.9403)"><rect width="329.564" height="221.48" x="490.059" y="-358.215" fill="none" rx="0" ry="0" transform="translate(400.5 363.73)"/><path fill="#7f8cd9" d="M922.621 112.935v-8.43h17.42v-54.45q0-2.11-.48-3.35t-1.34-1.96-2.05-.96q-1.2-.24-2.64-.24-2.1 0-5.21.67t-6.56 2.01q-3.44 1.34-6.94 3.3-3.49 1.97-6.22 4.45-2.72 2.49-4.45 5.55-1.72 3.07-1.72 6.61 0 3.06.81 4.88.82 1.82 1.87 2.73t2.15 1.14q1.1.24 1.58.24 2.4 0 3.93-.81t2.77-1.72q1.25-.91 2.35-1.73 1.1-.81 2.53-.81 1.15 0 2.44.53 1.3.52 2.4 1.67t1.86 3.02q.77 1.86.77 4.54 0 3.83-1.49 6.61-1.48 2.77-3.82 4.64-2.35 1.86-5.36 2.77-3.02.91-5.98.91-4.6 0-8.28-1.58-3.69-1.58-6.27-4.35-2.59-2.78-3.93-6.51t-1.34-7.94q0-6.61 2.4-12.11 2.39-5.5 6.55-9.9 4.17-4.41 9.76-7.71 5.6-3.3 12.11-5.5t13.59-3.3 14.16-1.1q7.85 0 12.21 1.48 4.35 1.48 6.41 3.59 2.06 2.1 2.44 4.4t.38 3.83v56.46h35.22v-46.03q0-15.79 4.12-26.89 4.11-11.1 10.62-18.14 6.51-7.03 14.55-10.24 8.04-3.2 15.98-3.2 5.45 0 10.38.81t8.62 2.44q3.68 1.63 5.88 4.07t2.2 5.69q0 1.44-.43 2.73t-1.19 2.34q-.77 1.06-1.77 1.68-1.01.62-2.06.62-1.72 0-3.06-1.05t-2.54-2.63-2.35-3.45q-1.14-1.86-2.58-3.44t-3.25-2.64q-1.82-1.05-4.31-1.05-5.84 0-9.28 3.21-3.45 3.2-5.27 9.38-1.82 6.17-2.34 15.36-.53 9.18-.53 21.05v49.38h19.24v8.43h-19.24v58.18q0 2.78 1.2 4.45 1.19 1.68 3.68 1.68 2.68 0 4.98-.96t4.02-1.82l1.63 3.54q-2.11 1.44-4.93 3.02-2.83 1.58-6.22 2.97-3.4 1.38-7.28 2.29-3.87.91-8.08.91-6.51 0-10.53-1.72t-6.22-4.55q-2.2-2.82-2.92-6.36t-.72-7.18v-54.45h-35.22v47.66q0 13.01-4.73 22.68-4.74 9.66-12.97 16.12t-19.38 9.67-23.88 3.21q-4.88 0-9.38-.82-4.5-.81-7.94-2.25-3.45-1.43-5.51-3.39-2.05-1.97-2.05-4.26 0-1.73.48-3.5.47-1.77 1.43-3.2.96-1.44 2.35-2.39 1.38-.96 3.11-.96 1.05 0 1.86 1.05.82 1.05 1.68 2.63t1.96 3.4 2.87 3.4 4.26 2.63 6.22 1.05q7.37 0 12.68-2.68t8.76-7.56q3.44-4.88 5.12-11.63 1.67-6.74 1.67-14.78v-56.08Z"/><path fill="#7f8cd9" d="M1155.101 105.285v64.12q0 1.25-.39 2.97-.38 1.72-1.86 3.25-1.49 1.53-4.45 2.63-2.97 1.1-8.04 1.1t-7.99-1.19q-2.92-1.2-4.41-2.83-1.48-1.62-1.86-3.34-.38-1.73-.38-2.78v-67.66q0-1.34-.39-2.73-.38-1.39-1.15-2.54-.76-1.14-1.91-1.86t-2.68-.72q-2.58 0-5.07 1.48-2.49 1.49-4.64 3.4-2.16 1.92-3.74 3.83-1.57 1.91-2.24 2.87v64.12q0 1.25-.39 2.97-.38 1.72-1.86 3.25-1.49 1.53-4.41 2.63-2.91 1.1-7.99 1.1-5.07 0-7.99-1.19-2.92-1.2-4.45-2.83-1.53-1.62-1.91-3.34-.39-1.73-.39-2.78v-73.88q0-2.78-1.29-4.84-1.29-2.05-4.35-2.05-1.63 0-2.78.57t-2.49 1.63l-2.01-2.39q2.21-1.82 4.93-3.59 2.73-1.77 5.89-3.11t6.79-2.21q3.64-.86 7.66-.86 6.22 0 9.67 2.06 3.44 2.06 5.07 4.93t1.96 5.98q.34 3.11.34 5.22 4.49-5.08 9.66-9.09 2.11-1.73 4.64-3.35 2.54-1.63 5.22-2.92 2.68-1.3 5.55-2.06 2.87-.77 5.74-.77 5.55 0 9.48 2.01 3.92 2.01 6.31 4.84 2.4 2.82 3.5 5.93t1.1 5.41q4.59-5.08 9.66-9.09 2.11-1.73 4.6-3.35 2.48-1.63 5.21-2.92 2.73-1.3 5.55-2.06 2.83-.77 5.7-.77 5.55 0 9.47 2.06 3.93 2.06 6.32 5.41t3.49 7.56 1.1 8.42v59.24q0 .86.1 1.87.09 1 .48 1.91.38.91 1.19 1.48.82.58 2.16.58 1.81 0 3.25-1.29 1.44-1.3 2.68-2.64l2.3 2.01q-1.34 2.01-3.54 4.45-2.21 2.45-5.22 4.65t-6.99 3.68q-3.97 1.48-8.94 1.48-4.22 0-7.33-1.1t-5.26-2.96q-2.15-1.87-3.21-4.41-1.05-2.53-1.05-5.4v-63.93q0-1.34-.38-2.73t-1.1-2.54q-.72-1.14-1.87-1.86t-2.68-.72q-2.58 0-5.12 1.48-2.53 1.49-4.69 3.4-2.15 1.92-3.68 3.83t-2.2 2.87"/></g><path fill="transparent" stroke="transparent" d="M832.5 0h335v227h-335z"/></g></svg>